<svg class="loader" width="83" height="83" viewBox="0 0 83 83" fill="#000" xmlns="http://www.w3.org/2000/svg">
<path d="M41.5 5.08582C41.5 2.277 39.2145 -0.0321386 36.4268 0.31123C30.016 1.10084 23.8533 3.37953 18.4438 6.99401C11.6192 11.5541 6.30004 18.0355 3.159 25.6186C0.0179627 33.2018 -0.803876 41.546 0.797411 49.5962C2.3987 57.6465 6.35119 65.0411 12.1551 70.8449C17.9589 76.6488 25.3535 80.6013 33.4038 82.2026C41.454 83.8039 49.7982 82.982 57.3814 79.841C64.9645 76.7 71.4459 71.3808 76.006 64.5562C79.6205 59.1467 81.8992 52.984 82.6888 46.5732C83.0321 43.7855 80.723 41.5 77.9142 41.5V41.5C75.1054 41.5 72.8705 43.7917 72.4164 46.5636C71.6966 50.9586 70.0444 55.1698 67.5486 58.9051C64.1062 64.057 59.2133 68.0725 53.4888 70.4436C47.7643 72.8148 41.4652 73.4352 35.3881 72.2264C29.311 71.0176 23.7289 68.0338 19.3475 63.6525C14.9662 59.2711 11.9824 53.689 10.7736 47.6119C9.5648 41.5348 10.1852 35.2357 12.5564 29.5112C14.9275 23.7867 18.943 18.8938 24.0949 15.4514C27.8302 12.9556 32.0414 11.3034 36.4364 10.5836C39.2083 10.1295 41.5 7.89465 41.5 5.08582V5.08582Z" fill="black"/>
</svg>
