
<svg width="212" height="212" viewBox="0 0 212 212" fill="none" xmlns="http://www.w3.org/2000/svg">
<rect x="0.5" y="0.5" width="211" height="211" rx="105.5" stroke="black"/>
<path d="M88.636 142L88.6 135.322L85.36 140.758H83.776L80.554 135.502V142H77.26V129.4H80.194L84.622 136.672L88.942 129.4H91.876L91.912 142H88.636Z" fill="#E91A22"/>
<path d="M99.3298 132.082C100.95 132.082 102.186 132.454 103.038 133.198C103.89 133.93 104.316 135.058 104.316 136.582V142H101.13V140.74C100.638 141.688 99.6778 142.162 98.2498 142.162C97.4938 142.162 96.8398 142.03 96.2878 141.766C95.7358 141.502 95.3158 141.148 95.0278 140.704C94.7518 140.248 94.6138 139.732 94.6138 139.156C94.6138 138.232 94.9678 137.518 95.6758 137.014C96.3838 136.498 97.4758 136.24 98.9518 136.24H100.896C100.836 135.208 100.146 134.692 98.8258 134.692C98.3578 134.692 97.8838 134.77 97.4038 134.926C96.9238 135.07 96.5158 135.274 96.1798 135.538L95.0278 133.216C95.5678 132.856 96.2218 132.58 96.9898 132.388C97.7698 132.184 98.5498 132.082 99.3298 132.082ZM99.2038 140.002C99.5998 140.002 99.9478 139.906 100.248 139.714C100.548 139.522 100.764 139.24 100.896 138.868V138.022H99.4198C98.4238 138.022 97.9258 138.352 97.9258 139.012C97.9258 139.312 98.0398 139.552 98.2678 139.732C98.4958 139.912 98.8078 140.002 99.2038 140.002ZM117.635 132.244V142H114.377V140.956C114.017 141.352 113.585 141.652 113.081 141.856C112.577 142.06 112.043 142.162 111.479 142.162C110.219 142.162 109.211 141.79 108.455 141.046C107.711 140.302 107.339 139.186 107.339 137.698V132.244H110.759V137.14C110.759 137.872 110.897 138.406 111.173 138.742C111.449 139.078 111.851 139.246 112.379 139.246C112.919 139.246 113.357 139.06 113.693 138.688C114.041 138.304 114.215 137.722 114.215 136.942V132.244H117.635ZM120.737 128.644H124.157V142H120.737V128.644ZM127.28 132.244H130.7V142H127.28V132.244ZM128.99 131.164C128.366 131.164 127.862 130.99 127.478 130.642C127.094 130.294 126.902 129.862 126.902 129.346C126.902 128.83 127.094 128.398 127.478 128.05C127.862 127.702 128.366 127.528 128.99 127.528C129.614 127.528 130.118 127.696 130.502 128.032C130.886 128.356 131.078 128.776 131.078 129.292C131.078 129.832 130.886 130.282 130.502 130.642C130.118 130.99 129.614 131.164 128.99 131.164Z" fill="black"/>
<path d="M46.636 164.667L46.6 157.989L43.36 163.425H41.776L38.554 158.169V164.667H35.26V152.067H38.194L42.622 159.339L46.942 152.067H49.876L49.912 164.667H46.636Z" fill="#C4C4C4"/>
<path d="M63.4318 154.911V164.667H60.1738V163.623C59.8138 164.019 59.3818 164.319 58.8778 164.523C58.3738 164.727 57.8398 164.829 57.2758 164.829C56.0158 164.829 55.0078 164.457 54.2518 163.713C53.5078 162.969 53.1358 161.853 53.1358 160.365V154.911H56.5558V159.807C56.5558 160.539 56.6938 161.073 56.9698 161.409C57.2458 161.745 57.6478 161.913 58.1758 161.913C58.7158 161.913 59.1538 161.727 59.4898 161.355C59.8378 160.971 60.0118 160.389 60.0118 159.609V154.911H63.4318ZM66.5347 151.311H69.9547V164.667H66.5347V151.311ZM80.7761 164.271C80.4881 164.451 80.1341 164.589 79.7141 164.685C79.3061 164.781 78.8681 164.829 78.4001 164.829C77.1281 164.829 76.1501 164.517 75.4661 163.893C74.7821 163.269 74.4401 162.339 74.4401 161.103V157.827H73.0181V155.271H74.4401V152.733H77.8601V155.271H80.0921V157.827H77.8601V161.067C77.8601 161.415 77.9501 161.691 78.1301 161.895C78.3221 162.087 78.5741 162.183 78.8861 162.183C79.2821 162.183 79.6301 162.081 79.9301 161.877L80.7761 164.271ZM82.9949 154.911H86.4149V164.667H82.9949V154.911ZM84.7049 153.831C84.0809 153.831 83.5769 153.657 83.1929 153.309C82.8089 152.961 82.6169 152.529 82.6169 152.013C82.6169 151.497 82.8089 151.065 83.1929 150.717C83.5769 150.369 84.0809 150.195 84.7049 150.195C85.3289 150.195 85.8329 150.363 86.2169 150.699C86.6009 151.023 86.7929 151.443 86.7929 151.959C86.7929 152.499 86.6009 152.949 86.2169 153.309C85.8329 153.657 85.3289 153.831 84.7049 153.831ZM93.0835 164.829C92.2675 164.829 91.4635 164.739 90.6715 164.559C89.8795 164.367 89.2435 164.121 88.7635 163.821L89.7895 161.481C90.2335 161.757 90.7615 161.979 91.3735 162.147C91.9855 162.303 92.5915 162.381 93.1915 162.381C93.7435 162.381 94.1335 162.327 94.3615 162.219C94.6015 162.099 94.7215 161.931 94.7215 161.715C94.7215 161.499 94.5775 161.349 94.2895 161.265C94.0135 161.169 93.5695 161.079 92.9575 160.995C92.1775 160.899 91.5115 160.773 90.9595 160.617C90.4195 160.461 89.9515 160.173 89.5555 159.753C89.1595 159.333 88.9615 158.745 88.9615 157.989C88.9615 157.365 89.1475 156.813 89.5195 156.333C89.8915 155.841 90.4315 155.457 91.1395 155.181C91.8595 154.893 92.7175 154.749 93.7135 154.749C94.4215 154.749 95.1235 154.821 95.8195 154.965C96.5155 155.109 97.0975 155.313 97.5655 155.577L96.5395 157.899C95.6755 157.419 94.7395 157.179 93.7315 157.179C93.1915 157.179 92.7955 157.245 92.5435 157.377C92.2915 157.497 92.1655 157.659 92.1655 157.863C92.1655 158.091 92.3035 158.253 92.5795 158.349C92.8555 158.433 93.3115 158.523 93.9475 158.619C94.7515 158.739 95.4175 158.877 95.9455 159.033C96.4735 159.189 96.9295 159.477 97.3135 159.897C97.7095 160.305 97.9075 160.881 97.9075 161.625C97.9075 162.237 97.7215 162.789 97.3495 163.281C96.9775 163.761 96.4255 164.139 95.6935 164.415C94.9735 164.691 94.1035 164.829 93.0835 164.829ZM110.253 159.807C110.253 159.831 110.235 160.113 110.199 160.653H103.107C103.251 161.157 103.527 161.547 103.935 161.823C104.355 162.087 104.877 162.219 105.501 162.219C105.969 162.219 106.371 162.153 106.707 162.021C107.055 161.889 107.403 161.673 107.751 161.373L109.551 163.245C108.603 164.301 107.217 164.829 105.393 164.829C104.253 164.829 103.251 164.613 102.387 164.181C101.523 163.749 100.851 163.149 100.371 162.381C99.9032 161.613 99.6692 160.743 99.6692 159.771C99.6692 158.811 99.8972 157.953 100.353 157.197C100.821 156.429 101.463 155.829 102.279 155.397C103.095 154.965 104.013 154.749 105.033 154.749C106.005 154.749 106.887 154.953 107.679 155.361C108.471 155.757 109.095 156.339 109.551 157.107C110.019 157.863 110.253 158.763 110.253 159.807ZM105.051 157.179C104.523 157.179 104.079 157.329 103.719 157.629C103.371 157.929 103.149 158.337 103.053 158.853H107.049C106.953 158.337 106.725 157.929 106.365 157.629C106.017 157.329 105.579 157.179 105.051 157.179ZM115.988 156.081C116.336 155.637 116.786 155.307 117.338 155.091C117.902 154.863 118.544 154.749 119.264 154.749V157.827C118.952 157.791 118.694 157.773 118.49 157.773C117.758 157.773 117.182 157.971 116.762 158.367C116.354 158.763 116.15 159.369 116.15 160.185V164.667H112.73V154.911H115.988V156.081ZM132.152 154.911L128.12 164.667H124.592L120.578 154.911H124.088L126.428 160.869L128.894 154.911H132.152ZM133.936 154.911H137.356V164.667H133.936V154.911ZM135.646 153.831C135.022 153.831 134.518 153.657 134.134 153.309C133.75 152.961 133.558 152.529 133.558 152.013C133.558 151.497 133.75 151.065 134.134 150.717C134.518 150.369 135.022 150.195 135.646 150.195C136.27 150.195 136.774 150.363 137.158 150.699C137.542 151.023 137.734 151.443 137.734 151.959C137.734 152.499 137.542 152.949 137.158 153.309C136.774 153.657 136.27 153.831 135.646 153.831ZM145.465 164.829C144.385 164.829 143.419 164.613 142.567 164.181C141.715 163.749 141.049 163.149 140.569 162.381C140.101 161.613 139.867 160.743 139.867 159.771C139.867 158.799 140.101 157.935 140.569 157.179C141.049 156.411 141.715 155.817 142.567 155.397C143.419 154.965 144.385 154.749 145.465 154.749C146.569 154.749 147.523 154.989 148.327 155.469C149.131 155.937 149.701 156.591 150.037 157.431L147.391 158.781C146.947 157.905 146.299 157.467 145.447 157.467C144.835 157.467 144.325 157.671 143.917 158.079C143.521 158.487 143.323 159.051 143.323 159.771C143.323 160.503 143.521 161.079 143.917 161.499C144.325 161.907 144.835 162.111 145.447 162.111C146.299 162.111 146.947 161.673 147.391 160.797L150.037 162.147C149.701 162.987 149.131 163.647 148.327 164.127C147.523 164.595 146.569 164.829 145.465 164.829ZM162.091 159.807C162.091 159.831 162.073 160.113 162.037 160.653H154.945C155.089 161.157 155.365 161.547 155.773 161.823C156.193 162.087 156.715 162.219 157.339 162.219C157.807 162.219 158.209 162.153 158.545 162.021C158.893 161.889 159.241 161.673 159.589 161.373L161.389 163.245C160.441 164.301 159.055 164.829 157.231 164.829C156.091 164.829 155.089 164.613 154.225 164.181C153.361 163.749 152.689 163.149 152.209 162.381C151.741 161.613 151.507 160.743 151.507 159.771C151.507 158.811 151.735 157.953 152.191 157.197C152.659 156.429 153.301 155.829 154.117 155.397C154.933 154.965 155.851 154.749 156.871 154.749C157.843 154.749 158.725 154.953 159.517 155.361C160.309 155.757 160.933 156.339 161.389 157.107C161.857 157.863 162.091 158.763 162.091 159.807ZM156.889 157.179C156.361 157.179 155.917 157.329 155.557 157.629C155.209 157.929 154.987 158.337 154.891 158.853H158.887C158.791 158.337 158.563 157.929 158.203 157.629C157.855 157.329 157.417 157.179 156.889 157.179ZM168.114 164.829C167.298 164.829 166.494 164.739 165.702 164.559C164.91 164.367 164.274 164.121 163.794 163.821L164.82 161.481C165.264 161.757 165.792 161.979 166.404 162.147C167.016 162.303 167.622 162.381 168.222 162.381C168.774 162.381 169.164 162.327 169.392 162.219C169.632 162.099 169.752 161.931 169.752 161.715C169.752 161.499 169.608 161.349 169.32 161.265C169.044 161.169 168.6 161.079 167.988 160.995C167.208 160.899 166.542 160.773 165.99 160.617C165.45 160.461 164.982 160.173 164.586 159.753C164.19 159.333 163.992 158.745 163.992 157.989C163.992 157.365 164.178 156.813 164.55 156.333C164.922 155.841 165.462 155.457 166.17 155.181C166.89 154.893 167.748 154.749 168.744 154.749C169.452 154.749 170.154 154.821 170.85 154.965C171.546 155.109 172.128 155.313 172.596 155.577L171.57 157.899C170.706 157.419 169.77 157.179 168.762 157.179C168.222 157.179 167.826 157.245 167.574 157.377C167.322 157.497 167.196 157.659 167.196 157.863C167.196 158.091 167.334 158.253 167.61 158.349C167.886 158.433 168.342 158.523 168.978 158.619C169.782 158.739 170.448 158.877 170.976 159.033C171.504 159.189 171.96 159.477 172.344 159.897C172.74 160.305 172.938 160.881 172.938 161.625C172.938 162.237 172.752 162.789 172.38 163.281C172.008 163.761 171.456 164.139 170.724 164.415C170.004 164.691 169.134 164.829 168.114 164.829Z" fill="black"/>
<path d="M70 104.042V64.3519L105.263 87.755L123.29 75.8954V87.755L105.263 99.7729L80.4365 83.0112V111.316L70 104.042Z" fill="#C4C4C4"/>
<path d="M70 52.0178V40L105.737 63.7194L141 40.1581V103.884L130.563 111.316V58.9755L105.421 75.7372L70 52.0178Z" fill="#E91A22"/>
</svg>
